<mxfile host="app.diagrams.net" agent="Mozilla/5.0 (X11; Linux x86_64; Chromium GOST) AppleWebKit/537.36 (KHTML, like Gecko) Chrome/128.0.0.0 Safari/537.36" version="24.8.1">
  <diagram name="Страница — 1" id="FOtvyurut0e9OAAs1gAz">
    <mxGraphModel dx="1434" dy="793" grid="1" gridSize="10" guides="1" tooltips="1" connect="1" arrows="1" fold="1" page="1" pageScale="1" pageWidth="827" pageHeight="1169" math="0" shadow="0">
      <root>
        <mxCell id="0" />
        <mxCell id="1" parent="0" />
        <mxCell id="MC5am3bXcMpyfJ8UCvmq-4" value="" style="rounded=0;whiteSpace=wrap;html=1;" vertex="1" parent="1">
          <mxGeometry x="219" y="50" width="390" height="40" as="geometry" />
        </mxCell>
        <mxCell id="MC5am3bXcMpyfJ8UCvmq-5" value="&lt;font style=&quot;font-size: 18px;&quot;&gt;Основные блоки UML&lt;/font&gt;" style="text;html=1;align=center;verticalAlign=middle;whiteSpace=wrap;rounded=0;" vertex="1" parent="1">
          <mxGeometry x="260" y="55" width="310" height="30" as="geometry" />
        </mxCell>
        <mxCell id="MC5am3bXcMpyfJ8UCvmq-6" value="" style="rounded=0;whiteSpace=wrap;html=1;" vertex="1" parent="1">
          <mxGeometry x="220" y="160" width="390" height="40" as="geometry" />
        </mxCell>
        <mxCell id="MC5am3bXcMpyfJ8UCvmq-7" value="Text" style="text;html=1;align=center;verticalAlign=middle;whiteSpace=wrap;rounded=0;" vertex="1" parent="1">
          <mxGeometry x="250" y="290" width="60" height="30" as="geometry" />
        </mxCell>
        <mxCell id="MC5am3bXcMpyfJ8UCvmq-9" value="" style="ellipse;whiteSpace=wrap;html=1;" vertex="1" parent="1">
          <mxGeometry x="350" y="230" width="120" height="80" as="geometry" />
        </mxCell>
        <mxCell id="MC5am3bXcMpyfJ8UCvmq-10" value="&lt;font style=&quot;font-size: 14px;&quot;&gt;Классы, варианты, актеры и действия&lt;/font&gt;" style="text;html=1;align=center;verticalAlign=middle;whiteSpace=wrap;rounded=0;" vertex="1" parent="1">
          <mxGeometry x="200" y="165" width="420" height="30" as="geometry" />
        </mxCell>
        <mxCell id="MC5am3bXcMpyfJ8UCvmq-12" value="Гость" style="shape=umlActor;verticalLabelPosition=bottom;verticalAlign=top;html=1;outlineConnect=0;" vertex="1" parent="1">
          <mxGeometry x="1120" y="470" width="30" height="60" as="geometry" />
        </mxCell>
        <mxCell id="MC5am3bXcMpyfJ8UCvmq-13" value="Действие - Вариант" style="text;html=1;align=center;verticalAlign=middle;whiteSpace=wrap;rounded=0;" vertex="1" parent="1">
          <mxGeometry x="1055" y="555" width="160" height="30" as="geometry" />
        </mxCell>
        <mxCell id="MC5am3bXcMpyfJ8UCvmq-14" value="" style="ellipse;whiteSpace=wrap;html=1;" vertex="1" parent="1">
          <mxGeometry x="1075" y="600" width="120" height="80" as="geometry" />
        </mxCell>
        <mxCell id="MC5am3bXcMpyfJ8UCvmq-16" value="Главное окно" style="text;html=1;align=center;verticalAlign=middle;whiteSpace=wrap;rounded=0;" vertex="1" parent="1">
          <mxGeometry x="1087.5" y="625" width="95" height="30" as="geometry" />
        </mxCell>
        <mxCell id="MC5am3bXcMpyfJ8UCvmq-17" value="" style="ellipse;whiteSpace=wrap;html=1;" vertex="1" parent="1">
          <mxGeometry x="1370" y="490" width="120" height="80" as="geometry" />
        </mxCell>
        <mxCell id="MC5am3bXcMpyfJ8UCvmq-18" value="Авторизация" style="text;html=1;align=center;verticalAlign=middle;whiteSpace=wrap;rounded=0;" vertex="1" parent="1">
          <mxGeometry x="1400" y="515" width="60" height="30" as="geometry" />
        </mxCell>
        <mxCell id="MC5am3bXcMpyfJ8UCvmq-19" value="" style="ellipse;whiteSpace=wrap;html=1;" vertex="1" parent="1">
          <mxGeometry x="1370" y="610" width="120" height="80" as="geometry" />
        </mxCell>
        <mxCell id="MC5am3bXcMpyfJ8UCvmq-20" value="Регистрации" style="text;html=1;align=center;verticalAlign=middle;whiteSpace=wrap;rounded=0;" vertex="1" parent="1">
          <mxGeometry x="1400" y="635" width="60" height="30" as="geometry" />
        </mxCell>
        <mxCell id="MC5am3bXcMpyfJ8UCvmq-21" value="Соединение актеров и вариантов" style="text;html=1;align=center;verticalAlign=middle;whiteSpace=wrap;rounded=0;" vertex="1" parent="1">
          <mxGeometry x="1030" y="720" width="240" height="20" as="geometry" />
        </mxCell>
        <mxCell id="MC5am3bXcMpyfJ8UCvmq-23" value="Обычное соединение - Ассоциация&lt;span style=&quot;color: rgba(0, 0, 0, 0); font-family: monospace; font-size: 0px; text-align: start; text-wrap: nowrap;&quot;&gt;%3CmxGraphModel%3E%3Croot%3E%3CmxCell%20id%3D%220%22%2F%3E%3CmxCell%20id%3D%221%22%20parent%3D%220%22%2F%3E%3CmxCell%20id%3D%222%22%20value%3D%22%D0%A1%D0%BE%D0%B5%D0%B4%D0%B8%D0%BD%D0%B5%D0%BD%D0%B8%D0%B5%20%D0%B0%D0%BA%D1%82%D0%B5%D1%80%D0%BE%D0%B2%20%D0%B8%20%D0%B2%D0%B0%D1%80%D0%B8%D0%B0%D0%BD%D1%82%D0%BE%D0%B2%22%20style%3D%22text%3Bhtml%3D1%3Balign%3Dcenter%3BverticalAlign%3Dmiddle%3BwhiteSpace%3Dwrap%3Brounded%3D0%3B%22%20vertex%3D%221%22%20parent%3D%221%22%3E%3CmxGeometry%20x%3D%221030%22%20y%3D%22720%22%20width%3D%22240%22%20height%3D%2220%22%20as%3D%22geometry%22%2F%3E%3C%2FmxCell%3E%3C%2Froot%3E%3C%2FmxGraphModel%3E&lt;/span&gt;" style="text;html=1;align=center;verticalAlign=middle;whiteSpace=wrap;rounded=0;" vertex="1" parent="1">
          <mxGeometry x="1030" y="740" width="240" height="20" as="geometry" />
        </mxCell>
        <mxCell id="MC5am3bXcMpyfJ8UCvmq-24" value="Обозначается линией" style="text;html=1;align=center;verticalAlign=middle;whiteSpace=wrap;rounded=0;" vertex="1" parent="1">
          <mxGeometry x="1310" y="740" width="140" height="20" as="geometry" />
        </mxCell>
        <mxCell id="MC5am3bXcMpyfJ8UCvmq-25" value="" style="ellipse;whiteSpace=wrap;html=1;" vertex="1" parent="1">
          <mxGeometry x="1130" y="780" width="120" height="80" as="geometry" />
        </mxCell>
        <mxCell id="MC5am3bXcMpyfJ8UCvmq-26" value="Главное окно" style="text;html=1;align=center;verticalAlign=middle;whiteSpace=wrap;rounded=0;" vertex="1" parent="1">
          <mxGeometry x="1145" y="805" width="90" height="30" as="geometry" />
        </mxCell>
        <mxCell id="MC5am3bXcMpyfJ8UCvmq-27" value="Гость" style="shape=umlActor;verticalLabelPosition=bottom;verticalAlign=top;html=1;outlineConnect=0;" vertex="1" parent="1">
          <mxGeometry x="1055" y="805" width="30" height="60" as="geometry" />
        </mxCell>
      </root>
    </mxGraphModel>
  </diagram>
</mxfile>
